<svg width="7" height="7" viewBox="0 0 7 7" fill="none" xmlns="http://www.w3.org/2000/svg">
<path d="M3.20834 3.06254C3.20834 2.17658 3.92654 1.45837 4.8125 1.45837C5.69847 1.45837 6.41667 2.17658 6.41667 3.06254C6.41667 3.94851 5.69847 4.66671 4.8125 4.66671C3.92654 4.66671 3.20834 3.94851 3.20834 3.06254Z" stroke="black" stroke-width="0.4375"/>
<path d="M4.8125 5.83329V4.66663M4.8125 5.83329H5.6875M4.8125 5.83329H3.9375" stroke="black" stroke-width="0.4375" stroke-linecap="round" stroke-linejoin="round"/>
<path d="M0.583336 3.20837V2.98962C0.462525 2.98962 0.364586 3.08757 0.364586 3.20837H0.583336ZM2.33334 3.20837H2.55209C2.55209 3.08757 2.45415 2.98962 2.33334 2.98962V3.20837ZM0.583336 3.42712H2.33334V2.98962H0.583336V3.42712ZM2.11459 3.20837V4.95837H2.55209V3.20837H2.11459ZM0.802086 4.95837V3.20837H0.364586V4.95837H0.802086ZM1.45834 5.61462C1.0959 5.61462 0.802086 5.3208 0.802086 4.95837H0.364586C0.364586 5.56244 0.854274 6.05212 1.45834 6.05212V5.61462ZM2.11459 4.95837C2.11459 5.3208 1.82077 5.61462 1.45834 5.61462V6.05212C2.0624 6.05212 2.55209 5.56244 2.55209 4.95837H2.11459Z" fill="black"/>
<path d="M0.875 3.20829H2.04167V1.63854C2.04167 1.42172 1.81349 1.2807 1.61956 1.37766L1.03623 1.66933C0.937417 1.71874 0.875 1.81973 0.875 1.93021V3.20829Z" stroke="black" stroke-width="0.4375"/>
</svg>
