<svg width="8" height="6" viewBox="0 0 8 6" fill="none" xmlns="http://www.w3.org/2000/svg">
<path d="M6.53256 0.23616C6.2676 0.23616 6.05304 0.45096 6.05304 0.71592C6.05304 0.87648 6.132 1.01832 6.25296 1.10544L5.49456 2.29632C5.65608 2.382 5.76624 2.55168 5.76624 2.74728C5.76624 3.0288 5.538 3.25728 5.25648 3.25728C4.97496 3.25728 4.74672 3.02904 4.74672 2.74728C4.74672 2.4912 4.93536 2.27928 5.18136 2.2428L4.66104 1.02168C4.89 0.96816 5.06064 0.76296 5.06064 0.51768C5.06064 0.23184 4.82904 0 4.5432 0C4.25736 0 4.02576 0.23184 4.02576 0.51768C4.02576 0.7392 4.16496 0.92832 4.3608 1.00224L3.69432 2.13912C3.9132 2.2068 4.07208 2.4108 4.07208 2.652C4.07208 2.9484 3.83184 3.18888 3.53544 3.18888C3.23904 3.18888 2.9988 2.94864 2.9988 2.652C2.9988 2.42496 3.13968 2.23104 3.33864 2.15256L2.67744 1.00416C2.87568 0.93168 3.01728 0.74136 3.01728 0.51768C3.01728 0.23184 2.78568 0 2.49984 0C2.214 0 1.9824 0.23184 1.9824 0.51768C1.9824 0.7584 2.1468 0.96096 2.36952 1.0188L1.84056 2.24568C2.07816 2.28912 2.25816 2.49696 2.25816 2.74728C2.25816 3.0288 2.02992 3.25728 1.7484 3.25728C1.46688 3.25728 1.23864 3.02904 1.23864 2.74728C1.23864 2.54712 1.35408 2.37384 1.52184 2.29032L0.76104 1.104C0.88104 1.01688 0.95904 0.87552 0.95904 0.71592C0.95904 0.45096 0.74424 0.23616 0.47952 0.23616C0.2148 0.23616 0 0.45096 0 0.71592C0 0.98088 0.2148 1.19568 0.47952 1.19568C0.49056 1.19568 0.5016 1.1952 0.51264 1.19448L1.19088 4.86936C0.78 4.88016 0.7788 5.47104 1.2024 5.47104H1.302L1.30296 5.47584H5.71032L5.71128 5.47104H5.82528C6.2376 5.47104 6.24504 4.86912 5.82528 4.86912H5.82216L6.5004 1.19448C6.5112 1.1952 6.52224 1.19568 6.53328 1.19568C6.79824 1.19568 7.0128 0.98088 7.0128 0.71592C7.0128 0.45096 6.798 0.23616 6.53328 0.23616H6.53256Z" fill="black"/>
</svg>
