<svg width="20" height="20" viewBox="0 0 20 20" fill="none" xmlns="http://www.w3.org/2000/svg">
<path d="M9.99998 8.33306C11.381 8.33306 12.4999 7.21414 12.4999 5.83312C12.4999 4.45211 11.381 3.33319 9.99998 3.33319C8.61896 3.33319 7.50005 4.45211 7.50005 5.83312C7.50005 7.21414 8.61896 8.33306 9.99998 8.33306ZM9.99998 4.99983C10.4606 4.99983 10.8333 5.37255 10.8333 5.83312C10.8333 6.2937 10.4606 6.66642 9.99998 6.66642C9.5394 6.66642 9.16668 6.2937 9.16668 5.83312C9.16668 5.37255 9.5394 4.99983 9.99998 4.99983Z" fill="black"/>
<path d="M19.9835 19.0028L18.3169 10.6697C18.239 10.2802 17.897 9.99979 17.4998 9.99979H14.2605C14.3137 9.91596 14.3677 9.831 14.4231 9.74393L14.4636 9.6803C14.6922 9.32098 14.8027 9.14708 14.9339 8.93966C15.5182 8.01691 15.8331 6.94784 15.8331 5.83322C15.8331 2.3555 12.8117 -0.358838 9.31824 0.0387294C6.71878 0.335245 4.58446 2.41503 4.22471 5.00441C4.00944 6.55449 4.40455 8.0666 5.29991 9.28231C5.4751 9.5198 5.64432 9.75768 5.81037 9.99979H2.50019C2.10297 9.99979 1.76095 10.2802 1.68306 10.6697L0.0164633 19.0028C-0.0866589 19.5184 0.307745 19.9995 0.83359 19.9995H19.1664C19.6923 19.9995 20.0867 19.5184 19.9835 19.0028ZM5.87552 5.23371C6.13052 3.39825 7.66297 1.90497 9.50695 1.69462C12.009 1.40986 14.1665 3.34809 14.1665 5.83322C14.1665 6.62968 13.9425 7.39001 13.5258 8.04824C13.3954 8.25433 13.2854 8.42745 13.0574 8.78572L13.017 8.84935C11.4487 11.3145 10.7442 12.4868 9.9983 13.9723C8.70162 11.4192 7.80028 9.86428 6.64156 8.29347C6.00185 7.4249 5.72064 6.34879 5.87552 5.23371ZM1.85005 18.3329L3.18333 11.6664H6.8494C7.4631 12.7053 8.06062 13.8254 8.79415 15.2853C8.83427 15.3651 8.87458 15.4456 8.91552 15.5274L9.25461 16.2056C9.56175 16.8199 10.4384 16.8198 10.7454 16.2054L11.4637 14.768C11.9434 13.8099 12.488 12.8541 13.2183 11.6664H16.8166L18.1498 18.3329H1.85005Z" fill="black"/>
</svg>
