<svg width="15" height="15" viewBox="0 0 15 15" fill="none" xmlns="http://www.w3.org/2000/svg">
<path d="M7.57329 1.00022C7.51645 1.00227 7.46167 1.02295 7.41671 1.05933L1.1877 6.13586C1.13103 6.18201 1.09423 6.24979 1.0854 6.32428C1.07657 6.39878 1.09643 6.47388 1.14063 6.53308C1.18482 6.59227 1.24971 6.6307 1.32104 6.63993C1.39236 6.64915 1.46427 6.6284 1.52095 6.58224L1.89598 6.27674V13.7134C1.89598 13.7884 1.92452 13.8603 1.97531 13.9134C2.0261 13.9664 2.09498 13.9962 2.1668 13.9962H5.91289C5.94213 14.0013 5.97198 14.0013 6.00122 13.9962H9.16281C9.19205 14.0013 9.2219 14.0013 9.25114 13.9962H12.9999C13.0717 13.9962 13.1406 13.9664 13.1914 13.9134C13.2422 13.8603 13.2707 13.7884 13.2707 13.7134V6.27674L13.6457 6.58224C13.6738 6.6051 13.7059 6.62196 13.7402 6.63186C13.7745 6.64176 13.8103 6.6445 13.8456 6.63994C13.881 6.63538 13.9151 6.62359 13.946 6.60526C13.977 6.58692 14.0042 6.5624 14.0261 6.53309C14.0479 6.50378 14.0641 6.47025 14.0736 6.43442C14.083 6.3986 14.0857 6.36117 14.0813 6.32429C14.0769 6.2874 14.0656 6.25177 14.0481 6.21944C14.0305 6.18711 14.007 6.15871 13.979 6.13586L11.9166 4.45529V2.39904H10.2916V3.13049L7.74996 1.05933C7.69957 1.01852 7.637 0.99759 7.57329 1.00022ZM7.58334 1.64162L12.729 5.83532V13.4305H9.47912V8.0562H5.68755V13.4305H2.43763V5.83532L7.58334 1.64162ZM10.8333 2.96476H11.3749V4.01387L10.8333 3.57191V2.96476ZM6.2292 8.62191H8.93747V13.4305H6.2292V8.62191Z" fill="white" stroke="white" stroke-width="0.8"/>
</svg>
