<svg width="9" height="10" viewBox="0 0 9 10" fill="none" xmlns="http://www.w3.org/2000/svg">
<g clip-path="url(#clip0_17_13)">
<path d="M1.6485 5.33333C1.6101 5.33467 1.5723 5.351 1.5453 5.38167L1.2489 5.71233C1.1031 5.868 1.3188 6.10833 1.4589 5.94567L1.7553 5.61567C1.8519 5.51033 1.7814 5.33333 1.6485 5.33333ZM1.35 3C1.2165 3 1.149 3.17867 1.245 3.282L1.542 3.61267C1.6815 3.775 1.8972 3.53467 1.7514 3.37933L1.4544 3.04833C1.4271 3.01667 1.3905 3 1.35 3ZM3.7485 3C3.7101 3.00133 3.6723 3.01767 3.6453 3.04833L3.3489 3.379C3.2031 3.53467 3.4188 3.775 3.5589 3.61233L3.8553 3.28233C3.9519 3.177 3.8817 3 3.7488 3H3.7485ZM2.7 2.83333V3.16667C2.7 3.259 2.6331 3.33333 2.55 3.33333C2.4669 3.33333 2.4 3.259 2.4 3.16667V2.83333C2.4 2.741 2.4669 2.66667 2.55 2.66667C2.6331 2.66667 2.7 2.741 2.7 2.83333ZM1.05 4.33333H1.35C1.4331 4.33333 1.5 4.40767 1.5 4.5C1.5 4.59233 1.4331 4.66667 1.35 4.66667H1.05C0.9669 4.66667 0.9 4.59233 0.9 4.5C0.9 4.40767 0.9669 4.33333 1.05 4.33333ZM6.369 3.01667C6.2616 3.042 6.1614 3.09667 6.078 3.17667C5.9895 3.262 5.9232 3.37267 5.8869 3.496C5.8668 3.56433 5.8779 3.63533 5.8764 3.706C5.8032 3.66167 5.6364 3.65333 5.5323 3.68433C5.4003 3.71867 5.2689 3.78667 5.1678 3.901C5.0169 4.071 4.977 4.21433 4.9878 4.40367C4.9398 4.38033 4.8948 4.34933 4.8408 4.34033C4.752 4.32533 4.6632 4.33367 4.5798 4.363C4.4973 4.39167 4.4238 4.43833 4.3602 4.493C4.2717 4.56967 4.1964 4.66867 4.1457 4.78633C4.1097 4.86967 4.1073 4.963 4.1013 5.05567L3.4281 4.37667C3.3423 4.29 3.2481 4.195 3.1299 4.12C3.0111 4.04567 2.8719 3.99467 2.7225 4C2.5677 4.00567 2.4177 4.07267 2.3037 4.19267C2.1897 4.31267 2.1213 4.47667 2.1096 4.64933C2.0985 4.82067 2.1426 4.98467 2.2176 5.12267C2.2911 5.25933 2.3874 5.362 2.4738 5.45367L4.8756 8H4.35C4.278 8 4.1979 8 4.1115 8.01767C4.0245 8.035 3.9375 8.06933 3.8583 8.12833C3.7794 8.187 3.7137 8.26633 3.6684 8.36167C3.6234 8.456 3.6003 8.561 3.6003 8.66667C3.6003 8.77233 3.6231 8.87733 3.6684 8.972C3.7134 9.067 3.7794 9.14633 3.8586 9.20533C3.9381 9.264 4.0254 9.29867 4.1121 9.31533C4.1985 9.333 4.2789 9.33333 4.3506 9.33333H6.7506C6.9564 9.33333 6.9438 9 6.7506 9H4.3506C4.2807 9 4.2186 8.99833 4.1655 8.98767C4.1127 8.977 4.0641 8.957 4.0254 8.92833C3.987 8.89967 3.9546 8.86 3.9333 8.81567C3.9123 8.77133 3.9003 8.719 3.9003 8.66667C3.9003 8.61467 3.9123 8.562 3.9333 8.51767C3.9543 8.47333 3.9867 8.43367 4.0251 8.405C4.0641 8.37633 4.1121 8.35633 4.1652 8.34567C4.218 8.335 4.2804 8.33333 4.3503 8.33333H5.2503C5.3853 8.33333 5.4513 8.15 5.3541 8.04667L2.6811 5.21333C2.5965 5.12333 2.5221 5.03933 2.4747 4.95133C2.4276 4.864 2.4027 4.764 2.4087 4.67367C2.4147 4.585 2.4528 4.49467 2.5098 4.43467C2.5674 4.374 2.6508 4.33667 2.7318 4.33367C2.8122 4.33033 2.9004 4.36033 2.9814 4.411C3.063 4.46267 3.1422 4.539 3.2265 4.62433C3.6675 5.06833 4.1085 5.51233 4.5495 5.95767C4.6854 6.09433 4.8861 5.85433 4.7583 5.71933L4.6065 5.54933C4.5435 5.47833 4.4871 5.41333 4.4493 5.34733C4.4118 5.282 4.3875 5.20867 4.3818 5.13867C4.3764 5.06867 4.3887 4.99433 4.4166 4.92967C4.4448 4.86433 4.4898 4.80433 4.545 4.75633C4.5849 4.722 4.6272 4.69633 4.6695 4.68167C4.7109 4.66733 4.7553 4.663 4.7955 4.67C4.8363 4.67667 4.8789 4.695 4.9179 4.72333C4.9569 4.75167 4.9974 4.79433 5.043 4.84433L5.445 5.28567V5.28633C5.5872 5.43633 5.79 5.22467 5.6556 5.06967L5.5068 4.883C5.4333 4.79133 5.3607 4.71533 5.3202 4.632C5.2803 4.54933 5.2626 4.45533 5.2722 4.37067C5.2821 4.28633 5.3211 4.20167 5.3778 4.14C5.4354 4.07733 5.5149 4.03233 5.6016 4.01C5.7168 3.97533 5.8206 4.03667 5.8944 4.11867L6.1944 4.452L6.3444 4.61867C6.486 4.76933 6.6924 4.54 6.5568 4.38267L6.4068 4.216C6.3438 4.14667 6.2883 4.08267 6.2466 4.016C6.2052 3.95033 6.1755 3.87933 6.1626 3.80933C6.1506 3.73933 6.1536 3.66533 6.1728 3.60033C6.192 3.535 6.2283 3.47367 6.2748 3.42933C6.3186 3.38733 6.3738 3.357 6.4314 3.34333C6.4884 3.33 6.5514 3.332 6.6114 3.35C6.6708 3.36733 6.7314 3.40133 6.7869 3.44667C6.8433 3.492 6.8979 3.55167 6.9567 3.61733L8.7411 5.61C8.8821 5.77333 9.1005 5.53133 8.9532 5.37433L7.1697 3.38167C7.1097 3.315 7.0437 3.24267 6.9639 3.17767C6.8835 3.113 6.792 3.05867 6.6894 3.02767C6.5865 2.99767 6.4764 2.99167 6.3696 3.017L6.369 3.01667ZM2.7 8C2.7 8.184 2.5656 8.33333 2.4 8.33333C2.2344 8.33333 2.1 8.184 2.1 8C2.1 7.816 2.2344 7.66667 2.4 7.66667C2.5656 7.66667 2.7 7.816 2.7 8ZM1.95 0.666667H2.85C2.9331 0.666667 3 0.741 3 0.833333C3 0.925667 2.9331 1 2.85 1H1.95C1.8669 1 1.8 0.925667 1.8 0.833333C1.8 0.741 1.8669 0.666667 1.95 0.666667ZM0.45 0C0.2034 0 0 0.226 0 0.5V8.5C0 8.774 0.2034 9 0.45 9H3.15C3.3579 9 3.3411 8.66667 3.15 8.66667H0.45C0.3642 8.66667 0.3 8.59533 0.3 8.5V0.5C0.3 0.404667 0.3642 0.333333 0.45 0.333333H4.35C4.4358 0.333333 4.5 0.404667 4.5 0.5V3.5C4.497 3.72533 4.803 3.72533 4.8 3.5V0.5C4.8 0.226 4.5966 0 4.35 0H0.45Z" fill="white"/>
</g>
<defs>
<clipPath id="clip0_17_13">
<rect width="9" height="10" fill="white"/>
</clipPath>
</defs>
</svg>
