<svg width="11" height="11" viewBox="0 0 11 11" fill="none" xmlns="http://www.w3.org/2000/svg">
<path fill-rule="evenodd" clip-rule="evenodd" d="M2.14584 4.8125C2.14584 2.66089 3.89007 0.916667 6.04167 0.916667C8.19327 0.916667 9.9375 2.66089 9.9375 4.8125C9.9375 6.9641 8.19327 8.70833 6.04167 8.70833C5.27524 8.70833 4.56183 8.48751 3.95991 8.10613C3.84789 8.03518 3.71062 8.0162 3.58355 8.05411L2.26394 8.44795L2.76079 7.28535C2.81952 7.14794 2.80757 6.99055 2.72877 6.86359C2.35928 6.26817 2.14584 5.56595 2.14584 4.8125ZM6.04167 0C3.38381 0 1.22918 2.15463 1.22918 4.8125C1.22918 5.65496 1.44603 6.44797 1.82713 7.13749L1.03688 8.98654C0.967023 9.15003 0.997989 9.33914 1.11633 9.47178C1.23468 9.60447 1.41906 9.65672 1.58941 9.60584L3.65165 8.99044C4.35612 9.39423 5.17253 9.625 6.04167 9.625C8.69954 9.625 10.8542 7.47038 10.8542 4.8125C10.8542 2.15463 8.69954 0 6.04167 0ZM7.0924 5.81277L6.49006 6.23705C6.20795 6.07635 5.89605 5.85205 5.5832 5.53919C5.25796 5.21395 5.01684 4.87818 4.83906 4.57018L5.22185 4.24527C5.38611 4.10584 5.43108 3.87078 5.32988 3.68055L4.84214 2.76388C4.77646 2.64044 4.65803 2.55374 4.52053 2.52841C4.38302 2.50309 4.24148 2.54192 4.13613 2.63385L3.99152 2.76006C3.64377 3.06356 3.4381 3.5623 3.60856 4.0673C3.78528 4.5908 4.16242 5.41475 4.93503 6.18736C5.76625 7.0186 6.6106 7.34594 7.10436 7.47308C7.50219 7.57547 7.87867 7.4382 8.14395 7.22205L8.41506 7.00113C8.53101 6.90667 8.59358 6.76152 8.58267 6.61233C8.57171 6.46314 8.48866 6.32867 8.36015 6.25208L7.59093 5.79375C7.43555 5.70121 7.2403 5.70863 7.0924 5.81277Z" fill="white"/>
</svg>
