<svg width="13" height="13" viewBox="0 0 13 13" fill="none" xmlns="http://www.w3.org/2000/svg">
<circle cx="5.5" cy="8.5" r="0.5" fill="white"/>
<circle cx="7.5" cy="8.5" r="0.5" fill="white"/>
<path d="M6.5 0C10.0899 0 13 2.91015 13 6.5V10.833C13 12.0297 12.0297 13 10.833 13H9.83496C9.31542 12.9999 8.83823 12.7206 8.58203 12.2734C7.90632 12.7349 7.16156 13 6.5 13C5.83844 13 5.09367 12.735 4.41797 12.2734C4.16177 12.7207 3.6846 12.9999 3.16504 13H2.16699C0.970378 13 0 12.0297 0 10.833V6.5C0 2.91015 2.91015 0 6.5 0ZM6.5 1.44434C3.7079 1.44434 1.44434 3.7079 1.44434 6.5V10.833C1.44434 11.2319 1.76812 11.5557 2.16699 11.5557H3.16504L3.31543 11.2539C2.6439 10.4209 2.16699 9.30204 2.16699 7.94434C2.167 7.37317 2.26326 6.80716 2.43652 6.27441C2.53591 5.96919 2.82467 5.76638 3.14551 5.77637C4.23204 5.81045 5.28299 5.28542 5.90918 4.39648C6.04445 4.20439 6.26506 4.08984 6.5 4.08984C6.73494 4.08984 6.95555 4.20439 7.09082 4.39648C7.71693 5.28548 8.76793 5.81045 9.85449 5.77637C10.1753 5.76645 10.464 5.96924 10.5635 6.27441C10.7367 6.80709 10.833 7.37317 10.833 7.94434C10.833 9.30204 10.3562 10.4209 9.68457 11.2539L9.83496 11.5557H10.833C11.2319 11.5557 11.5557 11.2319 11.5557 10.833V6.5C11.5557 3.7079 9.29211 1.44434 6.5 1.44434ZM6.5 5.91504C5.75496 6.62982 4.77361 7.10212 3.68457 7.20215C3.63619 7.44817 3.61134 7.6973 3.61133 7.94434C3.61133 9.11311 4.08577 10.019 4.69922 10.6367C5.33497 11.2768 6.06319 11.5557 6.5 11.5557C6.93681 11.5557 7.665 11.2768 8.30078 10.6367C8.91416 10.019 9.38867 9.11311 9.38867 7.94434C9.38866 7.6973 9.36381 7.4481 9.31543 7.20215C8.22639 7.10205 7.24497 6.62989 6.5 5.91504Z" fill="white"/>
<path d="M6.5 0C10.0899 0 13 2.91015 13 6.5V10.833C13 12.0297 12.0297 13 10.833 13H9.83496C9.31542 12.9999 8.83823 12.7206 8.58203 12.2734C7.90632 12.7349 7.16156 13 6.5 13C5.83844 13 5.09367 12.735 4.41797 12.2734C4.16177 12.7207 3.6846 12.9999 3.16504 13H2.16699C0.970378 13 0 12.0297 0 10.833V6.5C0 2.91015 2.91015 0 6.5 0ZM6.5 1.44434C3.7079 1.44434 1.44434 3.7079 1.44434 6.5V10.833C1.44434 11.2319 1.76812 11.5557 2.16699 11.5557H3.16504L3.31543 11.2539C2.6439 10.4209 2.16699 9.30204 2.16699 7.94434C2.167 7.37317 2.26326 6.80716 2.43652 6.27441C2.53591 5.96919 2.82467 5.76638 3.14551 5.77637C4.23204 5.81045 5.28299 5.28542 5.90918 4.39648C6.04445 4.20439 6.26506 4.08984 6.5 4.08984C6.73494 4.08984 6.95555 4.20439 7.09082 4.39648C7.71693 5.28548 8.76793 5.81045 9.85449 5.77637C10.1753 5.76645 10.464 5.96924 10.5635 6.27441C10.7367 6.80709 10.833 7.37317 10.833 7.94434C10.833 9.30204 10.3562 10.4209 9.68457 11.2539L9.83496 11.5557H10.833C11.2319 11.5557 11.5557 11.2319 11.5557 10.833V6.5C11.5557 3.7079 9.29211 1.44434 6.5 1.44434ZM6.5 5.91504C5.75496 6.62982 4.77361 7.10212 3.68457 7.20215C3.63619 7.44817 3.61134 7.6973 3.61133 7.94434C3.61133 9.11311 4.08577 10.019 4.69922 10.6367C5.33497 11.2768 6.06319 11.5557 6.5 11.5557C6.93681 11.5557 7.665 11.2768 8.30078 10.6367C8.91416 10.019 9.38867 9.11311 9.38867 7.94434C9.38866 7.6973 9.36381 7.4481 9.31543 7.20215C8.22639 7.10205 7.24497 6.62989 6.5 5.91504Z" stroke="white"/>
</svg>
