<svg width="7" height="7" viewBox="0 0 7 7" fill="none" xmlns="http://www.w3.org/2000/svg">
<path d="M3.5 0.875C2.05025 0.875 0.875 2.05025 0.875 3.5V5.25C0.875 5.73326 1.26675 6.125 1.75 6.125H2.15307C2.37402 6.125 2.57601 6.00017 2.67482 5.80253L2.72581 5.70057C2.63413 5.63657 2.54531 5.56235 2.46228 5.47872C2.14181 5.15602 1.89583 4.68259 1.89583 4.08333C1.89583 3.86896 1.93203 3.65563 1.99758 3.45409C2.02667 3.36467 2.10753 3.35417 2.1875 3.35417C2.6806 3.35417 3.11658 3.10958 3.38077 2.73443C3.40807 2.69564 3.45255 2.67256 3.5 2.67257C3.54742 2.67257 3.5919 2.69564 3.61923 2.73444C3.8834 3.10957 4.31938 3.35417 4.8125 3.35417C4.89247 3.35417 4.97335 3.36467 5.00243 3.45409C5.06797 3.65566 5.10417 3.86896 5.10417 4.08333C5.10417 4.68259 4.8582 5.15602 4.53772 5.47872C4.45468 5.56235 4.36587 5.63657 4.2742 5.70057L4.32518 5.80253C4.424 6.00017 4.62598 6.125 4.84692 6.125H5.25C5.73326 6.125 6.125 5.73326 6.125 5.25V3.5C6.125 2.05025 4.94976 0.875 3.5 0.875Z" fill="black"/>
</svg>
