<svg width="15" height="13" viewBox="0 0 15 13" fill="none" xmlns="http://www.w3.org/2000/svg">
<path d="M14.8509 10.6776C14.707 10.377 14.4678 10.1225 14.166 9.9425C13.8646 9.76245 13.4974 9.65652 13.1073 9.65675C12.8475 9.65675 12.5974 9.70385 12.3707 9.78815C12.3162 9.80867 12.2633 9.8321 12.2115 9.85645L11.5986 8.35467L12.1257 7.60828C12.1257 5.99178 12.7791 1.36432 11.2338 0C9.68885 1.36432 9.87422 5.99201 9.87422 7.60782L10.467 8.44798L9.79896 9.86097C9.5295 9.73092 9.21936 9.65657 8.8925 9.65678C8.6325 9.65657 8.38219 9.70367 8.15574 9.7884C7.8151 9.91528 7.52727 10.1267 7.32342 10.3933C7.11916 10.6596 6.99963 10.9839 7 11.3282C6.99974 11.5579 7.05293 11.779 7.149 11.9793C7.29292 12.2799 7.53199 12.5339 7.83384 12.7142C8.1353 12.8945 8.5021 13.0002 8.89261 13C9.1525 13 9.40269 12.9535 9.62926 12.8683C9.96949 12.7413 10.2577 12.5297 10.4614 12.2633C10.6654 11.9969 10.7854 11.6731 10.7848 11.3283C10.7853 11.0986 10.7322 10.8776 10.6361 10.6777C10.5792 10.5587 10.5067 10.4476 10.4219 10.3448L10.9998 9.52632L11.5782 10.3453C11.5647 10.3613 11.5511 10.3773 11.5381 10.3933C11.3343 10.6597 11.2145 10.9839 11.2149 11.3283C11.2146 11.5579 11.2676 11.779 11.3636 11.9793C11.508 12.28 11.7473 12.5342 12.0489 12.7143C12.35 12.8945 12.7171 13.0002 13.1074 13C13.3672 13 13.6176 12.9533 13.8443 12.8684C14.1845 12.7411 14.4725 12.5297 14.6765 12.2633C14.8803 11.9969 15.0003 11.6731 15 11.3283C14.9999 11.0986 14.947 10.8775 14.8509 10.6776ZM9.70466 11.6311C9.63808 11.7702 9.52582 11.89 9.38484 11.9739C9.24348 12.0579 9.07686 12.1066 8.89264 12.1066C8.7694 12.1066 8.65484 12.0847 8.54959 12.0458C8.39216 11.9872 8.25641 11.8876 8.16126 11.7629C8.06621 11.6385 8.01148 11.4912 8.01136 11.3282C8.0111 11.2194 8.03586 11.1184 8.08013 11.0253C8.1466 10.8865 8.25923 10.7669 8.39995 10.6826C8.54145 10.5985 8.70805 10.55 8.89264 10.5498C9.01574 10.55 9.13019 10.5717 9.23543 10.6109C9.39289 10.6697 9.52835 10.7689 9.62342 10.8933C9.71861 11.0184 9.77343 11.1655 9.77357 11.3282C9.77372 11.4368 9.74919 11.5383 9.70466 11.6311ZM13.9196 11.6311C13.8533 11.7702 13.7405 11.89 13.5998 11.9739C13.4585 12.0579 13.2917 12.1062 13.1074 12.1066C12.9842 12.1066 12.8699 12.0847 12.7647 12.0458C12.6071 11.9869 12.4715 11.8876 12.3763 11.7629C12.2814 11.6385 12.2264 11.4909 12.2261 11.3282C12.2264 11.2194 12.2508 11.1184 12.2952 11.0253C12.3618 10.8865 12.4742 10.7669 12.615 10.6826C12.7562 10.5985 12.9231 10.55 13.1074 10.5498C13.2304 10.55 13.345 10.5717 13.4502 10.6109C13.6077 10.6697 13.7435 10.7689 13.8385 10.8933C13.9334 11.0182 13.9885 11.1655 13.9889 11.3282C13.9886 11.4368 13.9641 11.5383 13.9196 11.6311Z" fill="white"/>
<path d="M3.09491 5.44946L5.49548 5.44993C5.77406 5.44993 5.99971 5.27213 6 5.05336C5.99971 4.83462 5.7739 4.6568 5.49594 4.6568L3.09491 4.65726C2.99992 4.6568 2.92275 4.59631 2.92233 4.52127L2.92278 4.13879C2.92278 4.06373 2.99995 4.00327 3.09536 4.00327L5.49548 4.0037C5.77406 4.0037 5.99971 3.82588 5.99928 3.60714C5.99971 3.38748 5.77406 3.21101 5.49548 3.21101H3.09478C2.99995 3.21057 2.92262 3.14962 2.92216 3.07502L2.92262 2.69301C2.92262 2.61753 2.99995 2.55658 3.09478 2.55702L5.49581 2.55658C5.77435 2.55658 5.99932 2.37965 5.99932 2.15999C5.99974 1.94171 5.77409 1.76391 5.49551 1.76391H3.09494C2.99995 1.76435 2.92249 1.70343 2.92262 1.62839V1.24643C2.92262 1.17139 2.99995 1.1109 3.09507 1.1109L5.3444 1.11044C5.7064 1.11044 5.99971 0.8794 5.99971 0.595638C5.99971 0.310928 5.70611 0.0799164 5.34456 0.0799164L1.64337 0.00036774C1.21113 -0.00783051 0.793068 0.121343 0.483965 0.358273C0.174471 0.596099 0.000423458 0.921262 0.000423458 1.26144L0 11.7381C0 12.0778 0.174211 12.4035 0.483867 12.6408C0.793068 12.8787 1.21113 13.0074 1.64324 12.9997L5.34453 12.9192C5.70624 12.9192 5.99967 12.6891 5.99928 12.4044C5.99928 12.1197 5.70611 11.8886 5.3444 11.8886H3.09507C2.99995 11.8886 2.92246 11.8281 2.92262 11.7531L2.92216 11.3711C2.92216 11.2961 2.99937 11.2351 3.09491 11.2351H5.49548C5.77406 11.2351 5.99971 11.0573 6 10.839C5.99971 10.6203 5.77419 10.4425 5.49548 10.4425H3.09478C2.99937 10.4425 2.92216 10.3815 2.92246 10.3069L2.92216 9.92492C2.92246 9.84988 3.00008 9.78849 3.09491 9.78893H5.49548C5.77406 9.78893 5.99971 9.6111 5.99928 9.39283C5.99971 9.17409 5.77406 8.99582 5.49548 8.99582H3.09478C2.99979 8.99582 2.92216 8.93534 2.92216 8.86027L2.92262 8.47828C2.92262 8.40322 2.99995 8.34276 3.09478 8.34276H5.49581C5.77406 8.34276 5.99974 8.16539 5.99974 7.94619C5.99932 7.72697 5.77409 7.55006 5.49581 7.5496H3.09494C2.99995 7.5496 2.92262 7.48865 2.92262 7.41407V7.0316C2.92262 6.95659 2.99995 6.8961 3.09536 6.8961H5.49535C5.77419 6.89564 5.99941 6.71873 5.99987 6.49953C5.99987 6.28077 5.77406 6.1034 5.49551 6.1034H3.0951C3.00041 6.1034 2.92291 6.04248 2.92278 5.96742V5.58494C2.92229 5.51041 2.99992 5.44946 3.09491 5.44946Z" fill="white"/>
</svg>
